<svg width="32" height="32" viewBox="0 0 32 32" fill="none" xmlns="http://www.w3.org/2000/svg">
<g clip-path="url(#clip0_229_29)">
<path fill-rule="evenodd" clip-rule="evenodd" d="M15.8585 22.3137C16.0246 22.2388 16.1311 22.0716 16.1311 21.8902C16.1311 21.7078 16.0246 21.5405 15.8585 21.4656L9.21649 18.403C9.07261 18.3352 8.90299 18.3457 8.76847 18.4334C8.63395 18.5188 8.55206 18.6674 8.55206 18.8265V24.9525C8.55206 25.1116 8.63395 25.2602 8.76847 25.3456C8.90299 25.4333 9.0726 25.4438 9.21649 25.3771L15.8585 22.3137ZM14.5449 21.8902L9.48909 24.2216V19.5578L14.5449 21.8902Z" fill="#888888"/>
<path fill-rule="evenodd" clip-rule="evenodd" d="M23.3857 6.77841C23.3483 6.46724 23.2079 6.17599 22.9845 5.95256C22.7213 5.68819 22.3646 5.5408 21.9914 5.5408H15.1224C14.7516 5.5408 14.3936 5.68819 14.1304 5.95256C13.8684 6.21459 13.7187 6.57253 13.7187 6.94452V10.8995C13.7187 11.2726 13.8684 11.6282 14.1304 11.8914C14.3936 12.1558 14.7516 12.3032 15.1224 12.3032H21.9914C22.3646 12.3032 22.7213 12.1558 22.9845 11.8914C23.208 11.668 23.3483 11.3767 23.3857 11.0656L26.3956 12.2693C26.5395 12.3278 26.7032 12.3102 26.8319 12.2225C26.9606 12.1359 27.0378 11.9909 27.0378 11.8353V6.00869C27.0378 5.85311 26.9606 5.70806 26.8319 5.62032C26.7032 5.53376 26.5395 5.51621 26.3956 5.57353L23.3857 6.77841ZM22.4593 10.8996V6.94461C22.4593 6.82061 22.4113 6.7013 22.3236 6.61356C22.2347 6.52582 22.1165 6.47669 21.9914 6.47669H15.1224C14.9995 6.47669 14.8802 6.52582 14.7925 6.61356C14.7048 6.70129 14.6545 6.8206 14.6545 6.94461V10.8996C14.6545 11.0236 14.7048 11.1429 14.7925 11.2306C14.8802 11.3184 14.9995 11.3675 15.1224 11.3675H21.9914C22.1165 11.3675 22.2347 11.3184 22.3236 11.2306C22.4113 11.1429 22.4593 11.0236 22.4593 10.8996ZM23.3951 10.062V7.78214L26.1019 6.7001V11.1441L23.3951 10.062Z" fill="#888888"/>
<path fill-rule="evenodd" clip-rule="evenodd" d="M16.4317 15.2795H4.3024C3.52803 15.2795 2.89868 15.9088 2.89868 16.6832V27.0963C2.89868 27.8707 3.52803 28.5 4.3024 28.5H20.3798C21.1541 28.5 21.7835 27.8707 21.7835 27.0963V16.6832C21.7835 16.3112 21.6361 15.9544 21.3717 15.6901C21.1085 15.4269 20.7518 15.2795 20.3798 15.2795H19.3738L19.8428 14.3413H27.6977C28.472 14.3413 29.1014 13.7143 29.1014 12.9376V4.90372C29.1014 4.12934 28.472 3.5 27.6977 3.5H13.0592C12.2848 3.5 11.6555 4.12934 11.6555 4.90372V12.9376C11.6555 13.7143 12.2848 14.3413 13.0592 14.3413H15.9625L16.4317 15.2795ZM18.9057 16.2153L18.3209 17.385C18.2413 17.5429 18.0799 17.6435 17.9021 17.6435C17.7243 17.6435 17.5629 17.5429 17.4845 17.385L16.8996 16.2153H4.30258C4.04406 16.2153 3.83467 16.4247 3.83467 16.6832V27.0963C3.83467 27.3536 4.04406 27.5642 4.30258 27.5642H20.3799C20.6385 27.5642 20.8479 27.3536 20.8479 27.0963V16.6832C20.8479 16.5592 20.7987 16.4399 20.7098 16.3521C20.6233 16.2644 20.5039 16.2153 20.3799 16.2153L18.9057 16.2153ZM28.1656 4.90381V12.9377C28.1656 13.1962 27.9562 13.4056 27.6977 13.4056H19.5539C19.3761 13.4056 19.2147 13.5062 19.1352 13.6641L17.9022 16.1288L16.6705 13.6641C16.5909 13.5062 16.4283 13.4056 16.2517 13.4056H13.0595C12.8021 13.4056 12.5916 13.1962 12.5916 12.9377V4.90381C12.5916 4.64646 12.8021 4.4359 13.0595 4.4359H27.6979C27.9564 4.4359 28.1656 4.64646 28.1656 4.90381Z" fill="#888888"/>
</g>
<defs>
<clipPath id="clip0_229_29">
<rect width="26" height="25" fill="white" transform="translate(3 3.5)"/>
</clipPath>
</defs>
</svg>
