<svg width="32" height="32" viewBox="0 0 32 32" fill="none" xmlns="http://www.w3.org/2000/svg">
<g clip-path="url(#clip0_229_37)">
<path d="M28.3685 12.6278C26.1525 12.18 23.9072 12.431 21.6958 13.3748C21.5092 13.4545 21.4159 13.6648 21.4824 13.8564L21.7246 14.556C20.7294 14.5562 19.9027 14.2956 19.0349 14.0209C18.7709 13.9373 18.4982 13.851 18.2178 13.7711C16.9131 13.3997 15.598 13.7196 14.6098 14.6487L14.488 14.7631C12.8 15.1441 11.6347 15.1198 10.2415 14.6569L10.5188 13.8558C10.5852 13.6642 10.492 13.4539 10.3054 13.3742C8.094 12.4308 5.84894 12.1792 3.63272 12.6272C3.45267 12.6637 3.32294 12.8219 3.32294 13.0057V22.5862C3.32294 22.7996 3.49592 22.9723 3.70903 22.9723H7.08636C7.25086 22.9723 7.39728 22.868 7.45126 22.7125L7.60304 22.2742C8.89106 22.7586 9.88427 23.792 10.4383 24.3689C10.4939 24.4268 10.5454 24.4805 10.5929 24.5291L14.5705 28.6049C14.8173 28.8575 15.1497 28.998 15.5069 29C15.5098 29 15.5126 29 15.5154 29C15.8747 29 16.2113 28.8609 16.4646 28.608C16.6234 28.4491 16.7339 28.2598 16.7958 28.0585C17.3868 28.3886 18.1491 28.303 18.6508 27.8013C18.9117 27.5404 19.0601 27.2092 19.096 26.868C19.2328 26.9067 19.3761 26.9265 19.5225 26.9265C19.938 26.9265 20.3275 26.7657 20.6197 26.4734C20.8998 26.1933 21.0502 25.8315 21.0708 25.4638C21.566 25.5664 22.1019 25.4259 22.4855 25.0427C23.0516 24.4765 23.0872 23.5921 22.5909 22.9686C22.7246 22.9423 22.8577 22.9025 22.9886 22.8491C23.3854 22.6871 23.752 22.5031 24.1062 22.325C24.1955 22.2801 24.2825 22.2366 24.3693 22.1936L24.5488 22.712C24.6028 22.8674 24.7492 22.9717 24.9137 22.9717H28.291C28.5044 22.9717 28.6771 22.7988 28.6771 22.5856V13.0062C28.678 12.8225 28.5485 12.6642 28.3685 12.6278ZM6.81192 22.2007H4.09569V13.327C5.94476 13.0124 7.81672 13.2213 9.66975 13.9486L6.81192 22.2007ZM21.9402 24.4977C21.6361 24.8016 21.1418 24.8016 20.8379 24.4977L18.408 22.0133C18.2591 21.8607 18.0146 21.8575 17.862 22.0068C17.7093 22.1557 17.7062 22.4002 17.8554 22.5529L20.0711 24.8233C20.0717 24.8239 20.072 24.8242 20.0725 24.8245C20.0731 24.825 20.0737 24.8259 20.0745 24.8265C20.3783 25.1303 20.3783 25.6246 20.0745 25.9285C19.7707 26.2323 19.276 26.2323 18.9725 25.9288L16.4394 23.3412C16.2904 23.1885 16.046 23.1854 15.8933 23.3347C15.7407 23.4836 15.7376 23.7281 15.8868 23.8807L18.1025 26.1512C18.103 26.1518 18.1036 26.1521 18.1042 26.1526C18.1047 26.1532 18.1053 26.1538 18.1059 26.1543C18.2523 26.3005 18.3328 26.4963 18.3328 26.7055C18.3328 26.9146 18.2523 27.1102 18.1062 27.2564C17.802 27.5602 17.3077 27.5602 17.0038 27.2564L14.2534 24.4514C14.1045 24.2988 13.86 24.2956 13.7073 24.4449C13.5547 24.5938 13.5516 24.8383 13.7008 24.991L15.9159 27.2609C15.9165 27.2614 15.9171 27.2617 15.9176 27.2623C15.9182 27.2629 15.9188 27.2634 15.9193 27.264C16.1395 27.4842 16.1395 27.8423 15.9193 28.0625C15.8114 28.1704 15.6678 28.2284 15.5126 28.2284C15.3634 28.2275 15.2254 28.1699 15.124 28.0659L11.1463 23.9901C11.1002 23.9429 11.0502 23.8906 10.9959 23.8344C10.3947 23.2083 9.31644 22.0865 7.85658 21.5447L9.98885 15.3872C10.821 15.6642 11.5898 15.7999 12.4114 15.7999C12.7489 15.7999 13.0957 15.7761 13.4592 15.7306L12.5655 16.5709C12.1381 16.9729 11.912 17.4955 11.912 18.0822V21.9624C11.912 22.1758 12.085 22.3485 12.2981 22.3485C13.9623 22.3485 15.6836 21.2959 15.6836 19.5342C15.6836 18.9262 16.163 18.4915 16.5304 18.1911L20.7387 22.3966C20.9417 22.5995 21.1746 22.7535 21.4241 22.8564L21.9337 23.3892C22.2396 23.7089 22.2421 24.1959 21.9402 24.4977ZM23.7602 21.6362C23.4191 21.8075 23.0666 21.9847 22.6975 22.1354C22.196 22.34 21.6681 22.2337 21.2848 21.8508L16.8289 17.3974C16.6842 17.2527 16.4515 17.2462 16.2989 17.3821C16.2579 17.4186 16.2017 17.4638 16.1367 17.5164C15.7085 17.8621 14.9117 18.5054 14.9117 19.5342C14.9117 20.2603 14.4849 20.7312 14.1268 20.9986C13.73 21.2948 13.2192 21.4893 12.6844 21.5531V18.0822C12.6844 17.7032 12.8187 17.3929 13.0946 17.1334L15.1389 15.2114C15.9244 14.4729 16.9696 14.2185 18.0064 14.5138C18.276 14.5904 18.5434 14.6752 18.802 14.7572C19.7619 15.0611 20.7523 15.3737 21.9903 15.3228L24.1155 21.4593C23.9954 21.5181 23.8767 21.5777 23.7602 21.6362ZM27.9058 22.2007H25.1895L22.3317 13.9488C24.1847 13.2213 26.0564 13.0124 27.9058 13.3273V22.2007ZM7.01768 11.9635H12.2455V13.0562C12.2455 13.2696 12.4185 13.4423 12.6316 13.4423H19.3699C19.5833 13.4423 19.756 13.2694 19.756 13.0562V11.9635H24.9838C25.1972 11.9635 25.3699 11.7906 25.3699 11.5774V9.96297C25.3699 8.64217 24.5821 7.48672 23.4154 6.98078C23.7969 6.55794 24.0296 6.00057 24.0296 5.39033C24.0296 4.07236 22.9462 3 21.6144 3C20.2825 3 19.1991 4.07236 19.1991 5.39033C19.1991 6.00113 19.432 6.55879 19.8142 6.98191C19.0762 7.30469 18.4778 7.89344 18.1449 8.63313C18.0346 8.56897 17.9199 8.51131 17.8015 8.45986C18.183 8.03703 18.4157 7.47965 18.4157 6.86942C18.4157 5.55144 17.3323 4.47908 16.0004 4.47908C14.6686 4.47908 13.5852 5.55144 13.5852 6.86942C13.5852 7.47965 13.8179 8.03703 14.1994 8.45986C14.081 8.51131 13.9662 8.56868 13.856 8.63313C13.5231 7.89373 12.9247 7.30469 12.1867 6.98191C12.5688 6.55907 12.8017 6.00113 12.8017 5.39033C12.8017 4.07236 11.7184 3 10.3865 3C9.05471 3 7.97133 4.07236 7.97133 5.39033C7.97133 6.00057 8.20395 6.55794 8.58552 6.98078C7.41904 7.487 6.63102 8.64245 6.63102 9.96297V11.5774C6.63159 11.7906 6.80428 11.9635 7.01768 11.9635ZM18.9838 12.6702H13.0177V11.4418C13.0177 10.2747 13.8244 9.27643 14.9527 9.02233C15.2698 9.17411 15.6254 9.25947 16.0007 9.25947C16.3761 9.25947 16.7317 9.17411 17.0488 9.02233C18.1771 9.27643 18.9838 10.2747 18.9838 11.4418V12.6702ZM21.6146 3.77219C22.5205 3.77219 23.2574 4.49802 23.2574 5.39005C23.2574 6.28208 22.5202 7.0082 21.6146 7.0082C20.7088 7.0082 19.9716 6.28236 19.9716 5.39005C19.9716 4.49774 20.7088 3.77219 21.6146 3.77219ZM20.5666 7.54353C20.8837 7.69531 21.2393 7.78038 21.6144 7.78038C21.9897 7.78038 22.3453 7.69503 22.6624 7.54324C23.7907 7.79734 24.5974 8.79565 24.5974 9.96269V11.1911H19.7461C19.6847 10.3861 19.3309 9.65659 18.7811 9.11786C19.0691 8.3273 19.743 7.72979 20.5666 7.54353ZM16.0007 5.25099C16.9066 5.25099 17.6435 5.97682 17.6435 6.86913C17.6435 7.76145 16.9066 8.487 16.0007 8.487C15.0948 8.487 14.3577 7.76116 14.3577 6.86913C14.3577 5.97711 15.0948 5.25099 16.0007 5.25099ZM10.3868 3.77219C11.2927 3.77219 12.0296 4.49802 12.0296 5.39005C12.0296 6.28208 11.2924 7.0082 10.3868 7.0082C9.48094 7.0082 8.7438 6.28236 8.7438 5.39005C8.7438 4.49774 9.48094 3.77219 10.3868 3.77219ZM7.40378 9.96269C7.40378 8.79565 8.21045 7.79734 9.33877 7.54324C9.6559 7.69503 10.0117 7.78038 10.3871 7.78038C10.7625 7.78038 11.1177 7.69531 11.4349 7.54353C12.2585 7.73007 12.9326 8.3273 13.2206 9.11815C12.6709 9.65687 12.3167 10.3864 12.2554 11.1914H7.40378V9.96269Z" fill="currentColor"/>
</g>
<defs>
<clipPath id="clip0_229_37">
<rect width="25.3542" height="26" fill="currentColor" transform="translate(3.32294 3)"/>
</clipPath>
</defs>
</svg>
