<svg width="32" height="32" viewBox="0 0 32 32" fill="none" xmlns="http://www.w3.org/2000/svg">
<g clip-path="url(#clip0_229_13)">
<path d="M25.8613 14.29C26.6235 13.7087 27.1176 12.7944 27.1176 11.7653C27.1176 10.0139 25.6926 8.58887 23.9411 8.58887C22.1897 8.58887 20.7646 10.0139 20.7646 11.7653C20.7646 12.7988 21.2632 13.7153 22.0286 14.2955C21.9481 14.3319 21.8643 14.3616 21.786 14.4025C21.5268 14.537 21.4253 14.8569 21.5599 15.1161C21.6944 15.3763 22.0154 15.4767 22.2735 15.3422C22.7797 15.0797 23.3566 14.9407 23.9411 14.9407C25.9838 14.9407 27.647 16.6028 27.647 18.6466V20.7642C27.647 21.6399 26.9345 22.3524 26.0588 22.3524H23.3797C23.0874 22.3524 22.8503 22.5896 22.8503 22.8819C22.8503 23.1741 23.0874 23.4113 23.3797 23.4113H26.0588C27.518 23.4113 28.7058 22.2234 28.7058 20.7642V18.6466C28.7058 16.7021 27.5345 15.0291 25.8614 14.2887L25.8613 14.29ZM21.8234 11.7653C21.8234 10.5973 22.7731 9.64769 23.9411 9.64769C25.1091 9.64769 26.0587 10.5973 26.0587 11.7653C26.0587 12.9333 25.1091 13.883 23.9411 13.883C22.7731 13.883 21.8234 12.9333 21.8234 11.7653Z" fill="#888888"/>
<path d="M10.4401 15.116C10.5746 14.8569 10.4732 14.537 10.214 14.4025C10.1357 14.3616 10.0518 14.3308 9.97133 14.2955C10.7379 13.7153 11.2353 12.7988 11.2353 11.7653C11.2353 10.0139 9.8103 8.58887 8.05884 8.58887C6.30738 8.58887 4.88237 10.0139 4.88237 11.7653C4.88237 12.7955 5.37759 13.7098 6.13861 14.29C4.46545 15.03 3.29419 16.7032 3.29419 18.6478V20.7654C3.29419 22.2246 4.48205 23.4125 5.94125 23.4125H8.6203C8.91259 23.4125 9.14971 23.1754 9.14971 22.8831C9.14971 22.5908 8.91258 22.3537 8.6203 22.3537H5.94125C5.0655 22.3537 4.35301 21.6412 4.35301 20.7654V18.6478C4.35301 16.604 6.01624 14.9419 8.0589 14.9419C8.64345 14.9419 9.2203 15.0809 9.72653 15.3434C9.98462 15.4769 10.3056 15.3765 10.4401 15.1173L10.4401 15.116ZM5.94106 11.7642C5.94106 10.5962 6.8907 9.64659 8.05871 9.64659C9.22672 9.64659 10.1764 10.5962 10.1764 11.7642C10.1764 12.9322 9.22672 13.8819 8.05871 13.8819C6.8907 13.8819 5.94106 12.9322 5.94106 11.7642Z" fill="#888888"/>
<path d="M18.1046 13.7522C19.0708 13.0827 19.7061 11.9676 19.7061 10.7059C19.7061 8.66213 18.0428 7 16.0002 7C13.9575 7 12.2943 8.66213 12.2943 10.7059C12.2943 11.9677 12.9296 13.0827 13.8958 13.7522C11.723 14.5981 10.1766 16.7081 10.1766 19.1765V22.3529C10.1766 23.8121 11.3645 25 12.8237 25H19.1766C20.6358 25 21.8237 23.8121 21.8237 22.3529V19.1765C21.8237 16.7081 20.2774 14.5981 18.1046 13.7522ZM13.3532 10.7059C13.3532 9.24668 14.541 8.05882 16.0002 8.05882C17.4594 8.05882 18.6473 9.24668 18.6473 10.7059C18.6473 12.1651 17.4594 13.3529 16.0002 13.3529C14.541 13.3529 13.3532 12.1651 13.3532 10.7059ZM20.7649 22.3529C20.7649 23.2287 20.0524 23.9412 19.1767 23.9412H12.8237C11.948 23.9412 11.2355 23.2287 11.2355 22.3529V19.1765C11.2355 16.5493 13.373 14.4118 16.0002 14.4118C18.6274 14.4118 20.7649 16.5493 20.7649 19.1765V22.3529Z" fill="#888888"/>
</g>
<defs>
<clipPath id="clip0_229_13">
<rect width="26" height="18" fill="white" transform="translate(3 7)"/>
</clipPath>
</defs>
</svg>
