<svg width="32" height="32" viewBox="0 0 32 32" fill="none" xmlns="http://www.w3.org/2000/svg">
<path d="M6.61969 29H25.3884C27.3791 29 29 27.4237 29 25.4859V8.57375C29 6.63594 27.3791 5.05969 25.3884 5.05969H24.3972V3.39406C24.3972 3.17875 24.2225 3 24.0031 3C23.7838 3 23.6091 3.17469 23.6091 3.39406V5.05562H16.3941V3.39406C16.3941 3.17875 16.2194 3 16 3C15.7806 3 15.6059 3.17469 15.6059 3.39406V5.05562H8.39094V3.39406C8.39094 3.17875 8.21219 3 7.99688 3C7.7775 3 7.60281 3.17469 7.60281 3.39406V5.05562H6.61969C4.625 5.05562 3 6.63188 3 8.57375V25.4859C3 27.4237 4.625 29 6.61969 29ZM3.78813 8.57375C3.78813 7.06656 5.05969 5.84375 6.61969 5.84375H7.60281V7.33469C6.81469 7.51344 6.22562 8.21625 6.22562 9.05719C6.22562 10.0322 7.02187 10.8244 7.99688 10.8244C8.97188 10.8244 9.76813 10.0322 9.76813 9.05719C9.76813 8.21625 9.175 7.51344 8.38688 7.33469V5.84375H15.6019V7.33469C14.8138 7.51344 14.2247 8.21625 14.2247 9.05719C14.2247 10.0322 15.0209 10.8244 15.9959 10.8244C16.975 10.8244 17.7672 10.0322 17.7672 9.05719C17.7672 8.21625 17.1741 7.51344 16.3859 7.33469V5.84375H23.6009V7.33469C22.8128 7.51344 22.2237 8.21625 22.2237 9.05719C22.2237 10.0322 23.02 10.8244 23.995 10.8244C24.9741 10.8244 25.7663 10.0322 25.7663 9.05719C25.7663 8.21625 25.1731 7.51344 24.385 7.33469V5.84375H25.3763C26.9322 5.84375 28.1997 7.06656 28.1997 8.56969V11.8684H3.78813V8.57375ZM7.99688 9.44719C8.21625 9.44719 8.39094 9.2725 8.39094 9.05312V8.15531C8.74031 8.30562 8.98406 8.65094 8.98406 9.05312C8.98406 9.59344 8.54125 10.0322 8.00094 10.0322C7.46063 10.0322 7.01781 9.59344 7.01781 9.05312C7.01781 8.65094 7.26156 8.30969 7.60687 8.15531V9.05312C7.60281 9.2725 7.7775 9.44719 7.99688 9.44719ZM16 9.44719C16.2194 9.44719 16.3941 9.2725 16.3941 9.05312V8.15531C16.7434 8.30562 16.9872 8.65094 16.9872 9.05312C16.9872 9.59344 16.5444 10.0322 16.0041 10.0322C15.4597 10.0322 15.0209 9.59344 15.0209 9.05312C15.0209 8.65094 15.2647 8.30969 15.61 8.15531V9.05312C15.6059 9.2725 15.7806 9.44719 16 9.44719ZM24.0031 9.44719C24.2225 9.44719 24.3972 9.2725 24.3972 9.05312V8.15531C24.7466 8.30562 24.9903 8.65094 24.9903 9.05312C24.9903 9.59344 24.5475 10.0322 24.0072 10.0322C23.4628 10.0322 23.0241 9.59344 23.0241 9.05312C23.0241 8.65094 23.2678 8.30969 23.6131 8.15531V9.05312C23.6091 9.2725 23.7878 9.44719 24.0031 9.44719ZM3.78813 12.6606H28.2078V25.4859C28.2078 26.9891 26.9403 28.2119 25.3844 28.2119H6.61969C5.05969 28.2119 3.79219 26.9891 3.79219 25.4859V12.6606H3.78813Z" fill="#888888"/>
<path d="M9.92655 22.0287L10.6456 22.1505C10.7716 22.6055 10.9503 23.0402 11.1819 23.4424L10.7594 24.0356C10.5522 24.3362 10.5847 24.7384 10.8447 24.9943L11.6856 25.8352C11.9456 26.0952 12.3519 26.1277 12.6444 25.9206L13.2456 25.5021C13.6559 25.7418 14.0987 25.9206 14.5375 26.0099L14.6675 26.7493C14.7244 27.1109 15.0372 27.3749 15.4028 27.3749H16.5972C16.9587 27.3749 17.2675 27.1149 17.3366 26.7534L17.4584 26.0424C17.9134 25.9206 18.3522 25.7377 18.7584 25.5021L19.3516 25.9165C19.6481 26.1318 20.0544 26.0952 20.3184 25.8352L21.1594 24.9943C21.4153 24.7384 21.4519 24.3321 21.2406 24.0315L20.8222 23.4424C21.0537 23.0402 21.2325 22.6055 21.3584 22.1505L22.0816 22.0287C22.4391 21.9637 22.6991 21.6509 22.6991 21.2934V20.103C22.6991 19.7334 22.435 19.4246 22.0734 19.3637L21.3544 19.2377C21.2284 18.7787 21.0456 18.3399 20.8181 17.9459L21.2406 17.3527C21.4478 17.0562 21.4112 16.654 21.1553 16.398L20.3103 15.553C20.0544 15.2971 19.6481 15.2605 19.3475 15.4718L18.7584 15.8902C18.34 15.6546 17.8972 15.4718 17.4584 15.3824L17.3325 14.639C17.2675 14.2815 16.9547 14.0215 16.5931 14.0215H15.3987C15.0291 14.0215 14.7203 14.2855 14.6634 14.643L14.5375 15.358C14.0866 15.4799 13.6478 15.6587 13.2334 15.8943L12.6403 15.4718C12.3397 15.2646 11.9375 15.3012 11.6816 15.5571L10.8406 16.4021C10.5847 16.658 10.5481 17.0602 10.7594 17.3609L11.1778 17.954C10.9503 18.3521 10.7675 18.7827 10.6416 19.2459L9.92655 19.3718C9.56499 19.4287 9.30499 19.7415 9.30499 20.1112V21.3015C9.30499 21.6549 9.56499 21.9637 9.92655 22.0287ZM10.0931 20.1355L10.8 20.0137C11.0966 19.9649 11.3241 19.7537 11.3972 19.4652C11.5069 19.059 11.6653 18.673 11.8684 18.3277C12.0147 18.0759 12.0066 17.759 11.8359 17.5152L11.4216 16.9302L12.2178 16.134L12.8028 16.5484C13.0384 16.719 13.3594 16.7312 13.6153 16.5849C13.9809 16.3777 14.3669 16.2193 14.7609 16.1137C15.0453 16.0365 15.2647 15.8049 15.3134 15.5205L15.4394 14.8096H16.5647L16.6866 15.5165C16.7353 15.8009 16.9425 16.0284 17.235 16.1137C17.6331 16.2193 18.0191 16.3777 18.3806 16.5849C18.6406 16.7352 18.9616 16.723 19.1931 16.5524L19.7822 16.134L20.5784 16.9302L20.16 17.5193C19.9975 17.759 19.9853 18.0759 20.1316 18.3277C20.3347 18.6771 20.4931 19.059 20.6028 19.4612C20.68 19.7537 20.9075 19.9649 21.2 20.0137L21.915 20.1396V21.2649L21.2041 21.3868C20.9156 21.4355 20.68 21.6509 20.6028 21.9352C20.4931 22.3374 20.3347 22.7193 20.1316 23.0727C19.9853 23.3246 19.9934 23.6415 20.1641 23.8852L20.5825 24.4702L19.7862 25.2665L19.2012 24.8562C18.9656 24.6856 18.6447 24.6693 18.3887 24.8196C18.0312 25.0268 17.6453 25.1893 17.2472 25.2949C16.9547 25.3721 16.7434 25.5996 16.6947 25.8921L16.5728 26.599H15.4475L15.3216 25.8881C15.2728 25.5996 15.0575 25.3681 14.7691 25.2909C14.3669 25.1852 13.985 25.0268 13.6316 24.8196C13.3756 24.6693 13.0547 24.6856 12.8231 24.8521L12.23 25.2665L11.4337 24.4702L11.8522 23.8812C12.0147 23.6456 12.0269 23.3287 11.8806 23.0727C11.6775 22.7193 11.515 22.3374 11.4094 21.9352C11.3322 21.6468 11.0966 21.4315 10.8122 21.3868L10.1053 21.269V20.1355H10.0931Z" fill="#888888"/>
<path d="M16 23.8365C17.7347 23.8365 19.1484 22.4268 19.1484 20.6962C19.1484 18.9656 17.7347 17.5559 16 17.5559C14.2653 17.5559 12.8516 18.9656 12.8516 20.6962C12.8516 22.4268 14.2653 23.8365 16 23.8365ZM16 18.344C17.3 18.344 18.3603 19.4003 18.3603 20.6962C18.3603 21.9922 17.3041 23.0484 16 23.0484C14.6959 23.0484 13.6397 21.9922 13.6397 20.6962C13.6438 19.4003 14.7 18.344 16 18.344Z" fill="#888888"/>
</svg>
