<svg width="28" height="29" viewBox="0 0 28 29" fill="currentColor" xmlns="http://www.w3.org/2000/svg">
<path fill-rule="evenodd" clip-rule="evenodd" d="M5.27534 25.3163L8.54365 28.5846C9.09755 29.1385 9.99655 29.1385 10.5514 28.5846L10.6404 28.4956C11.1943 27.9408 11.1943 27.0427 10.6404 26.4879L7.40491 23.2524L7.68912 22.9682L16.0595 20.1784C16.218 20.1252 16.3379 19.9938 16.3766 19.8314C16.4152 19.668 16.3669 19.4969 16.248 19.378L13.057 16.187L13.4215 15.8226C14.0005 15.2436 14.0005 14.3049 13.4215 13.7259L12.0092 12.3126C11.4301 11.7336 10.4915 11.7336 9.91244 12.3126L9.54705 12.6771L6.35608 9.48706C6.23815 9.36816 6.06703 9.31983 5.90367 9.35753C5.7403 9.3962 5.60885 9.51703 5.55665 9.67556L2.76586 18.0459L0.727176 20.0846C-0.242392 21.0542 -0.242392 22.6251 0.727176 23.5946L2.14045 25.0069C2.99209 25.8595 4.3106 25.962 5.27534 25.3163ZM6.72148 23.9359L5.99164 24.6657L9.22709 27.9011C9.40399 28.078 9.69108 28.078 9.86798 27.9011L9.95693 27.8122C10.1338 27.6353 10.1338 27.3482 9.95693 27.1713L6.72148 23.9359ZM3.1883 18.9904L6.74469 22.5458L4.966 24.3235C4.3744 24.9151 3.41546 24.9151 2.82386 24.3235L1.41061 22.9112C0.81901 22.3186 0.81901 21.3597 1.41061 20.7681L3.1883 18.9904ZM3.74123 18.1764L7.55861 21.9929L15.0116 19.5085L6.22557 10.7234L3.74123 18.1764ZM12.3736 15.5036L10.2305 13.3615L10.5959 12.9961C10.7969 12.795 11.1237 12.795 11.3247 12.9961L12.738 14.4093C12.9401 14.6104 12.9401 14.9371 12.738 15.1392L12.3736 15.5036Z" fill="currentColor"/>
<path fill-rule="evenodd" clip-rule="evenodd" d="M22.529 0.447275C22.4806 0.269333 22.3365 0.13497 22.1562 0.0998655C21.4795 -0.0332885 20.7823 -0.0332885 20.1056 0.0998655C19.9253 0.13497 19.7812 0.269333 19.7328 0.447275L19.4071 1.64324C19.1965 1.74129 18.9944 1.8575 18.8031 1.99065L17.6047 1.67471C17.428 1.62871 17.2392 1.68682 17.1181 1.82481C16.6642 2.34533 16.3168 2.94815 16.0928 3.60061C16.0335 3.77492 16.0771 3.96739 16.2066 4.09691L17.0794 4.97694C17.06 5.20935 17.06 5.44176 17.0794 5.67418L16.2066 6.5542C16.0771 6.68373 16.0335 6.87619 16.0928 7.05051C16.3168 7.70296 16.6642 8.30578 17.1181 8.8263C17.2392 8.96429 17.428 9.0224 17.6047 8.9764L18.8043 8.66046C18.9944 8.79362 19.1965 8.90982 19.4071 9.00787L19.7328 10.2038C19.7812 10.3818 19.9253 10.5161 20.1056 10.5512C20.7823 10.6844 21.4795 10.6844 22.1562 10.5512C22.3365 10.5161 22.4806 10.3818 22.529 10.2038L22.8546 9.00787C23.0653 8.90982 23.2674 8.79362 23.4587 8.66046L24.657 8.9764C24.8338 9.0224 25.0226 8.96429 25.1437 8.8263C25.5976 8.30578 25.945 7.70296 26.1689 7.05051C26.2282 6.87619 26.1847 6.68373 26.0552 6.5542L25.1824 5.67418C25.2017 5.44176 25.2017 5.20935 25.1824 4.97694L26.0552 4.09691C26.1847 3.96739 26.2282 3.77492 26.1689 3.60061C25.945 2.94815 25.5976 2.34533 25.1437 1.82481C25.0226 1.68682 24.8338 1.62871 24.657 1.67471L23.4574 1.99065C23.2674 1.8575 23.0653 1.74129 22.8546 1.64324L22.529 0.447275ZM21.678 1.00168L21.9831 2.12139C22.023 2.26786 22.1307 2.38769 22.2724 2.44338C22.5544 2.55474 22.8183 2.70726 23.0568 2.8961C23.1754 2.99052 23.3328 3.0232 23.4792 2.98447L24.6014 2.68911C24.8241 2.98084 25.0081 3.29919 25.1497 3.63813L24.3326 4.46126C24.2249 4.57021 24.1753 4.72273 24.197 4.87283C24.2418 5.17303 24.2418 5.47808 24.197 5.77828C24.1753 5.92838 24.2249 6.0809 24.3326 6.18985L25.1497 7.01298C25.0081 7.35192 24.8241 7.67028 24.6026 7.96201L23.4792 7.66664C23.3328 7.62791 23.1754 7.66059 23.0568 7.75501C22.8183 7.94385 22.5544 8.09637 22.2724 8.20774C22.1307 8.26342 22.023 8.38326 21.9831 8.52973L21.678 9.64943C21.3149 9.69543 20.9469 9.69543 20.5837 9.64943L20.2787 8.52973C20.2387 8.38326 20.131 8.26342 19.9894 8.20774C19.7074 8.09637 19.4435 7.94385 19.205 7.75501C19.0864 7.66059 18.929 7.62791 18.7825 7.66664L17.6604 7.96201C17.4377 7.67028 17.2537 7.35192 17.112 7.01298L17.9292 6.18985C18.0369 6.0809 18.0865 5.92838 18.0647 5.77828C18.0199 5.47808 18.0199 5.17303 18.0647 4.87283C18.0865 4.72273 18.0369 4.57021 17.9292 4.46126L17.112 3.63813C17.2537 3.29919 17.4377 2.98084 17.6592 2.68911L18.7825 2.98447C18.929 3.0232 19.0864 2.99052 19.205 2.8961C19.4435 2.70726 19.7074 2.55474 19.9894 2.44338C20.131 2.38769 20.2387 2.26786 20.2787 2.12139L20.5837 1.00168C20.9469 0.955682 21.3149 0.955682 21.678 1.00168ZM21.1309 3.00262C19.849 3.00262 18.8079 4.04365 18.8079 5.32556C18.8079 6.60747 19.849 7.64849 21.1309 7.64849C22.4128 7.64849 23.4538 6.60747 23.4538 5.32556C23.4538 4.04365 22.4128 3.00262 21.1309 3.00262ZM21.1309 3.9686C21.8802 3.9686 22.4878 4.57626 22.4878 5.32556C22.4878 6.07485 21.8802 6.68252 21.1309 6.68252C20.3816 6.68252 19.7739 6.07485 19.7739 5.32556C19.7739 4.57626 20.3816 3.9686 21.1309 3.9686Z" fill="currentColor"/>
<path fill-rule="evenodd" clip-rule="evenodd" d="M27.6933 16.7618C27.6933 16.3692 27.5374 15.9915 27.2594 15.7134C26.9814 15.4354 26.6037 15.2795 26.211 15.2795C24.7767 15.2795 22.1493 15.2795 20.715 15.2795C20.3223 15.2795 19.9446 15.4354 19.6665 15.7134C19.3885 15.9915 19.2327 16.3692 19.2327 16.7618C19.2327 17.8709 19.2327 19.65 19.2327 20.7591C19.2327 21.1518 19.3885 21.5295 19.6665 21.8075C19.9446 22.0855 20.3223 22.2414 20.715 22.2414C22.1493 22.2414 24.7767 22.2414 26.211 22.2414C26.6037 22.2414 26.9814 22.0855 27.2594 21.8075C27.5374 21.5295 27.6933 21.1518 27.6933 20.7591V16.7618ZM26.7266 16.7618V20.7591C26.7266 20.8955 26.6726 21.0266 26.5752 21.1233C26.4786 21.2207 26.3474 21.2747 26.211 21.2747H20.715C20.5786 21.2747 20.4474 21.2207 20.3507 21.1233C20.2533 21.0266 20.1994 20.8955 20.1994 20.7591V16.7618C20.1994 16.6255 20.2533 16.4943 20.3507 16.3976C20.4474 16.3002 20.5786 16.2463 20.715 16.2463H26.211C26.3474 16.2463 26.4786 16.3002 26.5752 16.3976C26.6726 16.4943 26.7266 16.6255 26.7266 16.7618Z" fill="currentColor"/>
<path fill-rule="evenodd" clip-rule="evenodd" d="M13.2049 1.45025C13.2049 1.06551 13.0522 0.697211 12.7806 0.424611C12.508 0.152977 12.1397 0.000244141 11.7549 0.000244141C10.2179 0.000244141 7.23188 0.000244141 5.69488 0.000244141C5.31014 0.000244141 4.94187 0.152977 4.66927 0.424611C4.39763 0.697211 4.24487 1.06551 4.24487 1.45025C4.24487 2.47588 4.24487 4.08635 4.24487 5.11199C4.24487 5.49672 4.39763 5.86599 4.66927 6.13762C4.94187 6.40926 5.31014 6.56199 5.69488 6.56199C7.23188 6.56199 10.2179 6.56199 11.7549 6.56199C12.1397 6.56199 12.508 6.40926 12.7806 6.13762C13.0522 5.86599 13.2049 5.49672 13.2049 5.11199C13.2049 4.08635 13.2049 2.47588 13.2049 1.45025ZM5.21154 1.48891V5.11199C5.21154 5.24055 5.2628 5.36332 5.3527 5.45419C5.44357 5.54505 5.56631 5.59532 5.69488 5.59532H11.7549C11.8835 5.59532 12.0063 5.54505 12.0971 5.45419C12.187 5.36332 12.2383 5.24055 12.2383 5.11199V1.48891L9.027 4.05832C8.8501 4.19945 8.59973 4.19945 8.42283 4.05832L5.21154 1.48891ZM8.72442 3.06168L11.3441 0.966912H6.10573L8.72442 3.06168Z" fill="currentColor"/>
</svg>
