<svg width="32" height="32" viewBox="0 0 32 32" fill="none" xmlns="http://www.w3.org/2000/svg">
<path fill-rule="evenodd" clip-rule="evenodd" d="M16.2817 13.7885L17.6948 12.3754C17.8834 12.1868 17.8834 11.8801 17.6948 11.6915C17.5061 11.5028 17.1995 11.5028 17.0108 11.6915L15.5978 13.1046C15.4091 13.2932 15.4091 13.5999 15.5978 13.7885C15.7864 13.9771 16.0931 13.9771 16.2817 13.7885Z" fill="currentColor"/>
<path fill-rule="evenodd" clip-rule="evenodd" d="M14.1237 12.3232L14.6409 10.3929C14.71 10.1353 14.5567 9.86969 14.299 9.80064C14.0413 9.73159 13.7757 9.88492 13.7067 10.1426L13.1894 12.0729C13.1204 12.3306 13.2737 12.5962 13.5314 12.6652C13.7891 12.7343 14.0547 12.5809 14.1237 12.3232Z" fill="currentColor"/>
<path fill-rule="evenodd" clip-rule="evenodd" d="M17.3142 16.1995L19.2445 15.6823C19.5022 15.6133 19.6555 15.3477 19.5864 15.09C19.5174 14.8323 19.2518 14.679 18.9941 14.7481L17.0638 15.2653C16.8062 15.3343 16.6528 15.5999 16.7219 15.8576C16.7909 16.1153 17.0565 16.2686 17.3142 16.1995Z" fill="currentColor"/>
<path fill-rule="evenodd" clip-rule="evenodd" d="M7.42872 26.8163L10.697 30.0846C11.2509 30.6385 12.1499 30.6385 12.7048 30.0846L12.7937 29.9956C13.3476 29.4408 13.3476 28.5427 12.7937 27.9879L9.55829 24.7524L9.8425 24.4682L18.2129 21.6784C18.3714 21.6252 18.4913 21.4938 18.5299 21.3314C18.5686 21.168 18.5203 20.9969 18.4014 20.878L15.2104 17.687L15.5748 17.3226C16.1539 16.7436 16.1539 15.8049 15.5748 15.2259L14.1625 13.8126C13.5835 13.2336 12.6449 13.2336 12.0658 13.8126L11.7004 14.1771L8.50947 10.9871C8.39153 10.8682 8.22041 10.8198 8.05705 10.8575C7.89368 10.8962 7.76223 11.017 7.71003 11.1756L4.91924 19.5459L2.88056 21.5846C1.91099 22.5542 1.91099 24.1251 2.88056 25.0946L4.29383 26.5069C5.14547 27.3595 6.46398 27.462 7.42872 26.8163ZM8.87486 25.4359L8.14502 26.1657L11.3805 29.4011C11.5574 29.578 11.8445 29.578 12.0214 29.4011L12.1103 29.3122C12.2872 29.1353 12.2872 28.8482 12.1103 28.6713L8.87486 25.4359ZM5.34169 20.4904L8.89807 24.0458L7.11938 25.8235C6.52778 26.4151 5.56884 26.4151 4.97724 25.8235L3.56399 24.4112C2.97239 23.8186 2.97239 22.8597 3.56399 22.2681L5.34169 20.4904ZM5.89461 19.6764L9.71199 23.4929L17.165 21.0085L8.37896 12.2234L5.89461 19.6764ZM14.527 17.0036L12.3839 14.8615L12.7493 14.4961C12.9503 14.295 13.2771 14.295 13.4781 14.4961L14.8914 15.9093C15.0934 16.1104 15.0934 16.4371 14.8914 16.6392L14.527 17.0036Z" fill="currentColor"/>
<path fill-rule="evenodd" clip-rule="evenodd" d="M24.6823 1.94728C24.6339 1.76933 24.4898 1.63497 24.3095 1.59987C23.6328 1.46671 22.9356 1.46671 22.2589 1.59987C22.0786 1.63497 21.9345 1.76933 21.8861 1.94728L21.5605 3.14324C21.3498 3.24129 21.1477 3.3575 20.9564 3.49065L19.7581 3.17471C19.5813 3.12871 19.3925 3.18682 19.2714 3.32481C18.8175 3.84533 18.4701 4.44815 18.2462 5.10061C18.1868 5.27492 18.2304 5.46739 18.3599 5.59691L19.2327 6.47694C19.2133 6.70935 19.2133 6.94176 19.2327 7.17418L18.3599 8.0542C18.2304 8.18373 18.1868 8.37619 18.2462 8.55051C18.4701 9.20296 18.8175 9.80578 19.2714 10.3263C19.3925 10.4643 19.5813 10.5224 19.7581 10.4764L20.9576 10.1605C21.1477 10.2936 21.3498 10.4098 21.5605 10.5079L21.8861 11.7038C21.9345 11.8818 22.0786 12.0161 22.2589 12.0512C22.9356 12.1844 23.6328 12.1844 24.3095 12.0512C24.4898 12.0161 24.6339 11.8818 24.6823 11.7038L25.008 10.5079C25.2186 10.4098 25.4207 10.2936 25.612 10.1605L26.8104 10.4764C26.9871 10.5224 27.1759 10.4643 27.297 10.3263C27.7509 9.80578 28.0983 9.20296 28.3223 8.55051C28.3816 8.37619 28.338 8.18373 28.2085 8.0542L27.3357 7.17418C27.3551 6.94176 27.3551 6.70935 27.3357 6.47694L28.2085 5.59691C28.338 5.46739 28.3816 5.27492 28.3223 5.10061C28.0983 4.44815 27.7509 3.84533 27.297 3.32481C27.1759 3.18682 26.9871 3.12871 26.8104 3.17471L25.6108 3.49065C25.4207 3.3575 25.2186 3.24129 25.008 3.14324L24.6823 1.94728ZM23.8313 2.50168L24.1364 3.62139C24.1764 3.76786 24.2841 3.88769 24.4257 3.94338C24.7077 4.05474 24.9716 4.20726 25.2101 4.3961C25.3287 4.49052 25.4861 4.5232 25.6326 4.48447L26.7547 4.18911C26.9774 4.48083 27.1614 4.79919 27.303 5.13813L26.4859 5.96126C26.3782 6.07021 26.3286 6.22273 26.3504 6.37283C26.3952 6.67303 26.3952 6.97808 26.3504 7.27828C26.3286 7.42838 26.3782 7.5809 26.4859 7.68985L27.303 8.51298C27.1614 8.85192 26.9774 9.17028 26.7559 9.46201L25.6326 9.16664C25.4861 9.12791 25.3287 9.16059 25.2101 9.25501C24.9716 9.44385 24.7077 9.59637 24.4257 9.70774C24.2841 9.76342 24.1764 9.88326 24.1364 10.0297L23.8313 11.1494C23.4682 11.1954 23.1002 11.1954 22.7371 11.1494L22.432 10.0297C22.3921 9.88326 22.2843 9.76342 22.1427 9.70774C21.8607 9.59637 21.5968 9.44385 21.3583 9.25501C21.2397 9.16059 21.0823 9.12791 20.9359 9.16664L19.8137 9.46201C19.591 9.17028 19.407 8.85192 19.2654 8.51298L20.0825 7.68985C20.1902 7.5809 20.2398 7.42838 20.218 7.27828C20.1733 6.97808 20.1733 6.67303 20.218 6.37283C20.2398 6.22273 20.1902 6.07021 20.0825 5.96126L19.2654 5.13813C19.407 4.79919 19.591 4.48083 19.8125 4.18911L20.9359 4.48447C21.0823 4.5232 21.2397 4.49052 21.3583 4.3961C21.5968 4.20726 21.8607 4.05474 22.1427 3.94338C22.2843 3.88769 22.3921 3.76786 22.432 3.62139L22.7371 2.50168C23.1002 2.45568 23.4682 2.45568 23.8313 2.50168ZM23.2842 4.50262C22.0023 4.50262 20.9613 5.54365 20.9613 6.82556C20.9613 8.10747 22.0023 9.14849 23.2842 9.14849C24.5661 9.14849 25.6071 8.10747 25.6071 6.82556C25.6071 5.54365 24.5661 4.50262 23.2842 4.50262ZM23.2842 5.4686C24.0335 5.4686 24.6412 6.07626 24.6412 6.82556C24.6412 7.57485 24.0335 8.18252 23.2842 8.18252C22.5349 8.18252 21.9272 7.57485 21.9272 6.82556C21.9272 6.07626 22.5349 5.4686 23.2842 5.4686Z" fill="currentColor"/>
<path fill-rule="evenodd" clip-rule="evenodd" d="M29.8466 18.2618C29.8466 17.8692 29.6908 17.4915 29.4127 17.2134C29.1347 16.9354 28.757 16.7795 28.3643 16.7795C26.93 16.7795 24.3026 16.7795 22.8683 16.7795C22.4756 16.7795 22.0979 16.9354 21.8199 17.2134C21.5418 17.4915 21.386 17.8692 21.386 18.2618C21.386 19.3709 21.386 21.15 21.386 22.2591C21.386 22.6518 21.5418 23.0295 21.8199 23.3075C22.0979 23.5855 22.4756 23.7414 22.8683 23.7414C24.3026 23.7414 26.93 23.7414 28.3643 23.7414C28.757 23.7414 29.1347 23.5855 29.4127 23.3075C29.6908 23.0295 29.8466 22.6518 29.8466 22.2591V18.2618ZM28.8799 18.2618V22.2591C28.8799 22.3955 28.826 22.5266 28.7285 22.6233C28.6319 22.7207 28.5007 22.7747 28.3643 22.7747H22.8683C22.7319 22.7747 22.6007 22.7207 22.5041 22.6233C22.4066 22.5266 22.3527 22.3955 22.3527 22.2591V18.2618C22.3527 18.1255 22.4066 17.9943 22.5041 17.8976C22.6007 17.8002 22.7319 17.7463 22.8683 17.7463H28.3643C28.5007 17.7463 28.6319 17.8002 28.7285 17.8976C28.826 17.9943 28.8799 18.1255 28.8799 18.2618Z" fill="currentColor"/>
<path fill-rule="evenodd" clip-rule="evenodd" d="M26.9828 19.2661C26.4278 18.9887 25.7671 18.6573 25.2442 18.3959C24.8988 18.2241 24.4892 18.2421 24.1616 18.445C23.8332 18.6479 23.634 19.0056 23.634 19.3917C23.634 19.9306 23.634 20.5913 23.634 21.1302C23.634 21.5162 23.8332 21.874 24.1616 22.0769C24.4892 22.2798 24.8988 22.2977 25.2442 22.126C25.7671 21.8645 26.4278 21.5332 26.9828 21.2557C27.3603 21.0679 27.5981 20.6819 27.5981 20.2609C27.5981 19.84 27.3603 19.454 26.9828 19.2661ZM26.5505 20.1307C26.6005 20.1552 26.6317 20.2052 26.6317 20.2609C26.6317 20.3166 26.6005 20.3666 26.5505 20.3912C25.9955 20.6687 25.3348 21 24.8119 21.2614C24.7666 21.284 24.7128 21.2812 24.6694 21.2548C24.627 21.2284 24.6005 21.1812 24.6005 21.1302V19.3917C24.6005 19.3407 24.627 19.2935 24.6694 19.2671C24.7128 19.2406 24.7666 19.2378 24.8119 19.2605C25.3348 19.5219 25.9955 19.8532 26.5505 20.1307Z" fill="currentColor"/>
<path fill-rule="evenodd" clip-rule="evenodd" d="M15.3583 2.95025C15.3583 2.56551 15.2056 2.19721 14.934 1.92461C14.6614 1.65298 14.293 1.50024 13.9083 1.50024C12.3713 1.50024 9.38526 1.50024 7.84826 1.50024C7.46352 1.50024 7.09525 1.65298 6.82265 1.92461C6.55101 2.19721 6.39825 2.56551 6.39825 2.95025C6.39825 3.97588 6.39825 5.58635 6.39825 6.61199C6.39825 6.99672 6.55101 7.36599 6.82265 7.63762C7.09525 7.90926 7.46352 8.06199 7.84826 8.06199C9.38526 8.06199 12.3713 8.06199 13.9083 8.06199C14.293 8.06199 14.6614 7.90926 14.934 7.63762C15.2056 7.36599 15.3583 6.99672 15.3583 6.61199C15.3583 5.58635 15.3583 3.97588 15.3583 2.95025ZM7.36492 2.98891V6.61199C7.36492 6.74055 7.41618 6.86332 7.50608 6.95419C7.59695 7.04505 7.71969 7.09532 7.84826 7.09532H13.9083C14.0369 7.09532 14.1596 7.04505 14.2505 6.95419C14.3404 6.86332 14.3916 6.74055 14.3916 6.61199V2.98891L11.1804 5.55832C11.0035 5.69945 10.7531 5.69945 10.5762 5.55832L7.36492 2.98891ZM10.8778 4.56168L13.4975 2.46691H8.25911L10.8778 4.56168Z" fill="currentColor"/>
</svg>
