<svg width="32" height="32" viewBox="0 0 32 32" fill="none" xmlns="http://www.w3.org/2000/svg">
<path d="M5.20044 13.5335C5.5317 13.5335 5.80043 13.2647 5.80043 12.9335V5.79994C5.80043 5.46869 6.06917 5.19996 6.40041 5.19996H25.5998C25.931 5.19996 26.1998 5.4687 26.1998 5.79994V15.447C26.1998 15.7783 26.4685 16.047 26.7998 16.047C27.131 16.047 27.3997 15.7782 27.3997 15.447V5.79994C27.3997 4.80746 26.5923 4 25.5998 4H6.40041C5.40793 4 4.60046 4.80746 4.60046 5.79994V12.9335C4.60046 13.2647 4.8692 13.5335 5.20044 13.5335Z" fill="#888888"/>
<path d="M18.4984 15.2929C18.2396 15.5004 18.1984 15.8778 18.4071 16.1366C18.5259 16.2841 18.6996 16.3603 18.8758 16.3603C19.0071 16.3603 19.1396 16.3166 19.2508 16.2278L20.9221 14.8854C21.3458 14.5491 21.5983 14.0229 21.5983 13.4792C21.5983 12.9842 21.4008 12.5242 21.042 12.1817C20.3933 11.5592 19.3496 11.5343 18.6134 12.123L16.691 13.6679L15.2735 12.563C14.6448 12.0705 13.8573 11.7992 13.0548 11.7992H12.9823C13.7173 11.2518 14.201 10.3843 14.201 9.39932C14.201 7.74561 12.8548 6.39941 11.2011 6.39941C9.54742 6.39941 8.20122 7.74561 8.20122 9.39932C8.20122 10.4106 8.70744 11.3018 9.47619 11.8455C7.98248 12.0655 6.75503 13.2004 6.4663 14.7167C6.4038 15.0416 6.61755 15.3566 6.94254 15.4191C7.26628 15.4791 7.58127 15.2679 7.64502 14.9429C7.86001 13.8179 8.85122 13.0005 10.0012 13.0005H13.0549C13.5973 13.0005 14.1086 13.1767 14.5336 13.5092L16.3273 14.9066C16.5473 15.0779 16.8547 15.0754 17.071 14.9016L19.3622 13.0604C19.6247 12.8504 19.9984 12.8454 20.2109 13.0504C20.3646 13.1967 20.3959 13.3642 20.3959 13.4804C20.3959 13.6617 20.3121 13.8354 20.1709 13.9492L18.4972 15.2929L18.4984 15.2929ZM11.1997 7.60063C12.1922 7.60063 12.9997 8.4081 12.9997 9.40058C12.9997 10.3931 12.1922 11.2005 11.1997 11.2005C10.2072 11.2005 9.39978 10.3931 9.39978 9.40058C9.39978 8.4081 10.2072 7.60063 11.1997 7.60063Z" fill="#888888"/>
<path d="M25.9797 22.1392C26.8284 21.6092 27.3996 20.673 27.3996 19.6005C27.3996 17.9468 26.0534 16.6006 24.3997 16.6006C22.746 16.6006 21.3998 17.9468 21.3998 19.6005C21.3998 20.673 21.9711 21.6092 22.8198 22.1392C21.3098 22.5679 20.1999 23.9554 20.1999 25.6002C20.1999 23.9552 19.0899 22.5678 17.5799 22.1392C18.4286 21.6092 18.9999 20.673 18.9999 19.6005C18.9999 17.9468 17.6537 16.6006 16 16.6006C14.3463 16.6006 13.0001 17.9468 13.0001 19.6005C13.0001 20.673 13.5713 21.6092 14.42 22.1392C12.9101 22.5679 11.8001 23.9554 11.8001 25.6002C11.8001 23.9552 10.6901 22.5678 9.18021 22.1392C10.0289 21.6092 10.6002 20.673 10.6002 19.6005C10.6002 17.9468 9.25396 16.6006 7.60026 16.6006C5.94655 16.6006 4.60035 17.9468 4.60035 19.6005C4.60035 20.673 5.1716 21.6092 6.02031 22.1392C4.51034 22.5679 3.40039 23.9554 3.40039 25.6002V26.2002C3.40039 27.1926 4.20785 28.0001 5.20033 28.0001H10.0002C10.9927 28.0001 11.8001 27.1926 11.8001 26.2002C11.8001 27.1926 12.6076 28.0001 13.6001 28.0001H18.3999C19.3924 28.0001 20.1999 27.1926 20.1999 26.2002C20.1999 27.1926 21.0073 28.0001 21.9998 28.0001H26.7996C27.7921 28.0001 28.5996 27.1926 28.5996 26.2002V25.6002C28.5996 23.9552 27.4896 22.5678 25.9797 22.1392ZM7.6001 17.8004C8.59258 17.8004 9.40004 18.6079 9.40004 19.6004C9.40004 20.5928 8.59258 21.4003 7.6001 21.4003C6.60762 21.4003 5.80015 20.5928 5.80015 19.6004C5.80015 18.6079 6.60762 17.8004 7.6001 17.8004ZM10.6 26.2002C10.6 26.5314 10.3313 26.8001 10 26.8001H5.20017C4.86892 26.8001 4.60019 26.5314 4.60019 26.2002V25.6002C4.60019 24.2765 5.67641 23.2002 7.00012 23.2002H8.20008C9.52378 23.2002 10.6 24.2765 10.6 25.6002V26.2002ZM15.9998 17.8004C16.9923 17.8004 17.7998 18.6079 17.7998 19.6004C17.7998 20.5928 16.9923 21.4003 15.9998 21.4003C15.0073 21.4003 14.1999 20.5928 14.1999 19.6004C14.1999 18.6079 15.0073 17.8004 15.9998 17.8004ZM18.9997 26.2002C18.9997 26.5314 18.731 26.8001 18.3998 26.8001H13.5999C13.2687 26.8001 12.9999 26.5314 12.9999 26.2002V25.6002C12.9999 24.2765 14.0761 23.2002 15.3998 23.2002H16.5998C17.9235 23.2002 18.9997 24.2765 18.9997 25.6002V26.2002ZM24.3996 17.8004C25.392 17.8004 26.1995 18.6079 26.1995 19.6004C26.1995 20.5928 25.392 21.4003 24.3996 21.4003C23.4071 21.4003 22.5996 20.5928 22.5996 19.6004C22.5996 18.6079 23.4071 17.8004 24.3996 17.8004ZM27.3995 26.2002C27.3995 26.5314 27.1307 26.8001 26.7995 26.8001H21.9996C21.6684 26.8001 21.3997 26.5314 21.3997 26.2002V25.6002C21.3997 24.2765 22.4759 23.2002 23.7996 23.2002H24.9995C26.3232 23.2002 27.3995 24.2765 27.3995 25.6002V26.2002Z" fill="#888888"/>
</svg>
