<svg width="30" height="26" viewBox="0 0 30 26" fill="none" xmlns="http://www.w3.org/2000/svg">
<path fill-rule="evenodd" clip-rule="evenodd" d="M16.6589 11.5198L18.3738 15.3925C18.4186 15.3298 18.4557 15.2619 18.4839 15.1902C18.5659 14.9776 18.5672 14.733 18.4673 14.5088L17.3748 12.0422C17.2762 11.8181 17.0944 11.6554 16.8818 11.5735C16.81 11.5453 16.7358 11.5273 16.6589 11.5184L16.6589 11.5198ZM13.4827 8.06447C13.6377 8.00171 13.8029 8.00428 13.9476 8.06063C14.0988 8.11826 14.2268 8.23352 14.2973 8.39232L15.6126 11.3623V11.3636L17.7872 16.274L19.1025 19.244C19.1729 19.4028 19.1729 19.5769 19.114 19.7268C19.0577 19.8715 18.9488 19.997 18.799 20.0675C18.7874 20.0726 18.7759 20.0764 18.7644 20.0828C18.6094 20.1456 18.4442 20.143 18.2982 20.0867C18.1535 20.0303 18.028 19.9215 17.9575 19.7716C17.9524 19.7575 17.946 19.7447 17.9396 19.7319L13.1459 8.90493C13.0755 8.74612 13.0755 8.57195 13.1344 8.42208C13.1907 8.27736 13.2996 8.15185 13.4494 8.0814C13.461 8.07628 13.4725 8.07244 13.484 8.06603L13.4827 8.06447ZM3.97734 17.5751L3.76474 17.6699C3.70711 17.6955 3.66484 17.7429 3.64307 17.7979C3.6213 17.853 3.6213 17.917 3.6482 17.976L4.84952 20.6898C4.87513 20.7474 4.92252 20.7897 4.97759 20.8114C5.03266 20.8332 5.09669 20.8332 5.15561 20.8063L5.36692 20.7128L3.97734 17.5751ZM7.1881 20.4785L6.39533 20.8294L4.58313 16.7351L6.24805 15.9974L8.06024 20.0917L7.20088 20.4721C7.19576 20.4747 7.19194 20.4759 7.1881 20.4785ZM10.4949 19.5807C10.0915 19.6268 9.6932 19.6819 9.29619 19.7485C9.2757 19.751 9.25649 19.7536 9.236 19.7587L9.23087 19.76C9.12586 19.7779 9.01956 19.7971 8.91454 19.8164L7.02677 15.5541C8.11282 14.7268 9.13739 13.7906 10.0992 12.743C10.9534 11.8145 11.759 10.7976 12.5172 9.69488L16.942 19.6871C15.6178 19.5078 14.3242 19.422 13.0601 19.4297C12.1944 19.4348 11.3452 19.4848 10.5102 19.5783C10.5051 19.5796 10.4987 19.5796 10.4936 19.5808L10.4949 19.5807ZM10.2938 22.3137L10.4411 22.2868C10.4642 22.283 10.4834 22.2779 10.5013 22.2728C10.5858 22.2471 10.6499 22.2049 10.6883 22.1549C10.7075 22.1293 10.7165 22.1037 10.7126 22.0819L10.7114 22.073L10.2349 20.5092C10.1171 20.5246 9.99929 20.5412 9.88147 20.5579L10.2938 22.3137ZM7.7875 24.5832L2.19089 24.5819C1.65555 24.5819 1.16888 24.3629 0.816685 24.0107C0.464496 23.6585 0.245483 23.1718 0.245483 22.6365V1.9454C0.245483 1.41007 0.464486 0.923392 0.816685 0.571202C1.16888 0.219012 1.65555 0 2.19089 0H27.8091C28.3444 0 28.8311 0.219002 29.1833 0.571202C29.5355 0.923402 29.7545 1.41007 29.7545 1.9454V22.6378C29.7545 23.1731 29.5355 23.6598 29.1833 24.012C28.8311 24.3642 28.3444 24.5832 27.8091 24.5832H10.7527C10.7501 24.6062 10.7476 24.6293 10.7437 24.6524C10.7156 24.8227 10.6541 24.9841 10.5593 25.1365C10.4645 25.2889 10.3454 25.4157 10.2058 25.5156C10.0662 25.6154 9.90743 25.6846 9.73197 25.7243L8.60111 25.9817C8.59343 25.9843 8.58574 25.9856 8.57806 25.9881C8.33856 26.0445 8.09781 25.8946 8.04145 25.6552L7.78915 24.5832L7.7875 24.5832ZM8.57001 24.0107C8.57513 24.0261 8.57769 24.0427 8.58154 24.0581L8.80822 25.0212L9.53569 24.8559C9.5946 24.8431 9.64583 24.8201 9.68937 24.7894C9.73164 24.7586 9.76878 24.7176 9.80207 24.6651C9.83537 24.6126 9.85586 24.5601 9.86483 24.5102C9.8738 24.4589 9.86995 24.4026 9.85587 24.3411L9.83794 24.263C9.83281 24.2476 9.83025 24.2322 9.82641 24.2156L9.00164 20.7065C8.93248 20.7193 8.86204 20.7334 8.79288 20.7462L7.89765 21.1419L8.57131 24.0094L8.57001 24.0107ZM14.9991 3.2042H26.4641C26.7113 3.2042 26.9111 3.00441 26.9111 2.75723C26.9111 2.51005 26.7113 2.31025 26.4641 2.31025H14.9991C14.7519 2.31025 14.5521 2.51004 14.5521 2.75723C14.5521 3.00441 14.7519 3.2042 14.9991 3.2042ZM4.09239 3.2042H5.08365C5.33083 3.2042 5.53063 3.00441 5.53063 2.75723C5.53063 2.51005 5.33083 2.31025 5.08365 2.31025H4.09239C3.84521 2.31025 3.64542 2.51004 3.64542 2.75723C3.64542 3.00441 3.84521 3.2042 4.09239 3.2042ZM6.82286 3.2042H7.81412C8.0613 3.2042 8.2611 3.00441 8.2611 2.75723C8.2611 2.51005 8.06131 2.31025 7.81412 2.31025H6.82286C6.57569 2.31025 6.37589 2.51004 6.37589 2.75723C6.37589 3.00441 6.57568 3.2042 6.82286 3.2042ZM9.55334 3.2042H10.5446C10.7918 3.2042 10.9916 3.00441 10.9916 2.75723C10.9916 2.51005 10.7918 2.31025 10.5446 2.31025H9.55334C9.30616 2.31025 9.10636 2.51004 9.10636 2.75723C9.10636 3.00441 9.30616 3.2042 9.55334 3.2042ZM28.8589 5.51206V22.6376C28.8589 22.9258 28.741 23.1883 28.5502 23.3792C28.3594 23.57 28.0968 23.6878 27.8087 23.6878H10.6175L10.4984 23.1806L10.6022 23.1614C10.6547 23.1512 10.7072 23.1384 10.7597 23.123C11.0299 23.041 11.2528 22.8835 11.4001 22.6876C11.5665 22.466 11.6395 22.1971 11.5883 21.9204C11.5819 21.8871 11.5729 21.8513 11.5627 21.8141L11.1349 20.4105C11.7689 20.3541 12.4118 20.3234 13.065 20.3196C14.5173 20.3106 16.0183 20.431 17.5665 20.6807C17.6908 20.7806 17.8303 20.8613 17.9776 20.9177C18.3337 21.056 18.7409 21.0611 19.1162 20.9023C19.1341 20.8959 19.1521 20.8882 19.1687 20.8792C19.5376 20.7076 19.8065 20.4028 19.9435 20.0468C20.0844 19.6818 20.087 19.2643 19.9179 18.8826L18.7602 16.2674C19.0125 16.0663 19.2008 15.8037 19.3134 15.5117C19.4787 15.0853 19.4812 14.5973 19.2827 14.1491L18.1903 11.6824C17.9918 11.2342 17.6281 10.9076 17.2016 10.7424C16.9083 10.6297 16.5868 10.5926 16.2692 10.6438L15.1127 8.03111C14.9424 7.64817 14.6325 7.36899 14.2675 7.22811C13.9037 7.08723 13.4862 7.08467 13.1046 7.25372H13.1033C12.7203 7.42406 12.4412 7.73529 12.3003 8.09899C12.2427 8.24627 12.2094 8.40252 12.1991 8.56262C11.3449 9.87535 10.4253 11.0664 9.44172 12.137C8.44404 13.2217 7.37976 14.1823 6.2489 15.0186L4.20871 15.9215C3.98715 16.0201 3.82449 16.1994 3.7438 16.4107C3.70538 16.5106 3.68489 16.6169 3.68361 16.7258L3.40185 16.85C3.11881 16.9755 2.91261 17.2048 2.80888 17.4737C2.70514 17.7427 2.70258 18.0513 2.82809 18.3331L4.02941 21.0469C4.15492 21.3299 4.38416 21.5361 4.6531 21.6399C4.92205 21.7436 5.2307 21.7462 5.51246 21.6206L5.7955 21.4951C5.87618 21.5669 5.9684 21.6232 6.06829 21.6629C6.27961 21.7449 6.52038 21.7462 6.74195 21.6488L7.06085 21.5079L7.57313 23.6864L2.19029 23.6877C1.90213 23.6877 1.63958 23.5699 1.44876 23.3791C1.25794 23.1882 1.14011 22.9257 1.14011 22.6375L1.13883 5.51064H28.8586L28.8589 5.51206ZM1.13907 4.61683H28.8589V1.94528C28.8589 1.65711 28.741 1.39456 28.5502 1.20375C28.3594 1.01292 28.0968 0.895096 27.8087 0.895096L2.19049 0.893815C1.90233 0.893815 1.63978 1.01164 1.44896 1.20247C1.25815 1.39329 1.14031 1.65584 1.14031 1.94399V4.61555L1.13907 4.61683ZM19.461 8.13742H26.6189C26.8661 8.13742 27.0659 7.93762 27.0659 7.69044C27.0659 7.44326 26.8661 7.24347 26.6189 7.24347H19.461C19.2138 7.24347 19.014 7.44326 19.014 7.69044C19.014 7.93762 19.2138 8.13742 19.461 8.13742ZM18.1393 8.13742H18.2431C18.4903 8.13742 18.6901 7.93762 18.6901 7.69044C18.6901 7.44326 18.4903 7.24347 18.2431 7.24347H18.1393C17.8922 7.24347 17.6924 7.44326 17.6924 7.69044C17.6924 7.93762 17.8922 8.13742 18.1393 8.13742ZM19.461 10.0879H26.6189C26.8661 10.0879 27.0659 9.88814 27.0659 9.64096C27.0659 9.39378 26.8661 9.19399 26.6189 9.19399H19.461C19.2138 9.19399 19.014 9.39378 19.014 9.64096C19.014 9.88814 19.2138 10.0879 19.461 10.0879ZM18.1393 10.0879H18.2431C18.4903 10.0879 18.6901 9.88814 18.6901 9.64096C18.6901 9.39378 18.4903 9.19399 18.2431 9.19399H18.1393C17.8922 9.19399 17.6924 9.39378 17.6924 9.64096C17.6924 9.88814 17.8922 10.0879 18.1393 10.0879Z" fill="#888888"/>
</svg>
